<?xml version="1.0" encoding="utf-8"?>
<!-- Generator: Adobe Illustrator 27.0.0, SVG Export Plug-In . SVG Version: 6.00 Build 0)  -->
<svg version="1.1" id="Layer_1" xmlns="http://www.w3.org/2000/svg" xmlns:xlink="http://www.w3.org/1999/xlink" x="0px" y="0px"
	 viewBox="0 0 31.9 32" style="enable-background:new 0 0 31.9 32;" xml:space="preserve">
<style type="text/css">
	.st0{fill:url(#SVGID_1_);}
</style>
<linearGradient id="SVGID_1_" gradientUnits="userSpaceOnUse" x1="15.3499" y1="0.6425" x2="15.3499" y2="32">
	<stop  offset="0.1351" style="stop-color:#0091DC"/>
	<stop  offset="0.4331" style="stop-color:#0085DC"/>
	<stop  offset="1" style="stop-color:#0071DC"/>
</linearGradient>
<path class="st0" d="M28,8.9l-0.2-0.6l-12.1,5.1l-2.8-1.2l-4.7,2.3l7.6,3.2l8.3-3.5v8.2l-8.6,5.4l-8.7-5.4v-12l2.6-1.6l-4.9-2
	L4.3,6.9c-0.7,0.4-1.2,1-1.5,1.7c-0.3,0.6-0.4,1.1-0.4,1.7v12.1c0,1.4,0.7,2.7,1.9,3.4l8.7,5.4c0.7,0.4,1.5,0.7,2.3,0.7
	c0.8,0,1.6-0.2,2.3-0.7l8.7-5.4c1.2-0.8,1.9-2,1.9-3.4V10.4C28.3,9.9,28.2,9.4,28,8.9z M25.7,5.1l-10-4.5l-10,4.5l10,4.5L25.7,5.1z"
	/>
</svg>
