<?xml version="1.0" encoding="utf-8"?>
<!-- Generator: Adobe Illustrator 27.0.0, SVG Export Plug-In . SVG Version: 6.00 Build 0)  -->
<svg version="1.1" id="Layer_1" xmlns="http://www.w3.org/2000/svg" xmlns:xlink="http://www.w3.org/1999/xlink" x="0px" y="0px"
	 viewBox="0 0 31.9 32" style="enable-background:new 0 0 31.9 32;" xml:space="preserve">
<style type="text/css">
	.st0{fill:url(#SVGID_1_);}
	.st1{fill:#0071DC;}
	.st2{fill:url(#SVGID_00000021822297129673953970000004858904555376068228_);}
</style>
<linearGradient id="SVGID_1_" gradientUnits="userSpaceOnUse" x1="11.9379" y1="0.6305" x2="11.9379" y2="32.4061">
	<stop  offset="0.1351" style="stop-color:#0091DC"/>
	<stop  offset="0.4331" style="stop-color:#0085DC"/>
	<stop  offset="1" style="stop-color:#0071DC"/>
</linearGradient>
<path class="st0" d="M7.9,19v4c0,1.7,1.3,3,3,3h7c3.3,0,6,2.7,6,6H6.4C3,32,0.2,29.3,0,26c0-0.2,0-0.3,0-0.5V6l0.5-2.3
	C0.6,3.3,0.7,3,1,2.7c0,0,0,0,0,0C1.2,2.3,1.4,2,1.7,1.8C2.8,0.7,4.3,0,5.9,0h18c0,1.7-0.7,3.2-1.8,4.2C21.1,5.3,19.6,6,17.9,6h-7
	c-1.7,0-3,1.3-3,3v4h13c1.7,0,3,1.3,3,3c0,0.8-0.3,1.6-0.9,2.1c-0.5,0.5-1.3,0.9-2.1,0.9H7.9z"/>
<path class="st1" d="M0.4,3.7C0.6,3.3,0.7,3,1,2.7C0.7,3,0.6,3.3,0.4,3.7z"/>
<path class="st1" d="M1.7,1.8C1.4,2,1.2,2.3,1,2.6C1.2,2.3,1.4,2,1.7,1.8L1.7,1.8z"/>
<path class="st1" d="M6.4,32H5.9c-3.3,0-6-2.7-6-6h0C0.2,29.3,3,32,6.4,32z"/>
<linearGradient id="SVGID_00000095336332436614011930000008065939210588116399_" gradientUnits="userSpaceOnUse" x1="28.9421" y1="0" x2="28.9421" y2="6">
	<stop  offset="0" style="stop-color:#FFEA83"/>
	<stop  offset="8.333001e-02" style="stop-color:#FFDD35"/>
	<stop  offset="1" style="stop-color:#FFA800"/>
</linearGradient>
<circle style="fill:url(#SVGID_00000095336332436614011930000008065939210588116399_);" cx="28.9" cy="3" r="3"/>
</svg>
