<?xml version="1.0" encoding="utf-8"?>
<!-- Generator: Adobe Illustrator 27.0.0, SVG Export Plug-In . SVG Version: 6.00 Build 0)  -->
<svg version="1.1" id="Layer_1" xmlns="http://www.w3.org/2000/svg" xmlns:xlink="http://www.w3.org/1999/xlink" x="0px" y="0px"
	 viewBox="0 0 296 64" style="enable-background:new 0 0 296 64;" xml:space="preserve">
<style type="text/css">
	.st0{fill:#252525;}
	.st1{font-family:'Montserrat-SemiBold';}
	.st2{font-size:62px;}
	.st3{fill:#333333;}
	.st4{font-family:'Montserrat-Regular';}
	.st5{fill:url(#SVGID_1_);}
</style>
<text transform="matrix(0.92 0 0 1 65.5862 54.7852)"><tspan x="0" y="0" class="st0 st1 st2">Edu</tspan><tspan x="126.4" y="0" class="st3 st4 st2">Mall</tspan></text>
<linearGradient id="SVGID_1_" gradientUnits="userSpaceOnUse" x1="25.1926" y1="1" x2="25.1926" y2="63">
	<stop  offset="0.1351" style="stop-color:#0091DC"/>
	<stop  offset="0.4331" style="stop-color:#0085DC"/>
	<stop  offset="1" style="stop-color:#0071DC"/>
</linearGradient>
<path class="st5" d="M42.1,21.4l-16.9,7.4l-5.3-2.3l-6.3,3.1l11.6,5.1l16.9-7.4v18c0,0.3-0.2,0.6-0.4,0.8L25.1,56.9
	C24.9,57,24.7,57,24.6,57c-0.1,0-0.3,0-0.5-0.2L7.5,46.2c-0.3-0.2-0.4-0.5-0.4-0.8V21.5c0-0.2,0.1-0.4,0.2-0.5
	c0.1-0.1,0.2-0.2,0.3-0.3l6.4-4.1l11.3,4.7l24.2-10.2L25.2,1L1,11.2l6.2,2.6l-3,1.9c-1.1,0.7-2,1.7-2.5,2.9
	c-0.4,0.9-0.6,1.9-0.6,2.9v23.9c0,2.3,1.2,4.5,3.2,5.8l16.6,10.7c2.3,1.5,5.2,1.5,7.5,0l16.6-10.7c2-1.3,3.2-3.5,3.2-5.8V21.5
	c0-0.9-0.2-1.7-0.5-2.5L42.1,21.4z"/>
</svg>
