<?xml version="1.0" encoding="utf-8"?>
<!-- Generator: Adobe Illustrator 27.0.0, SVG Export Plug-In . SVG Version: 6.00 Build 0)  -->
<svg version="1.1" id="logo" xmlns="http://www.w3.org/2000/svg" xmlns:xlink="http://www.w3.org/1999/xlink" x="0px" y="0px"
	 viewBox="0 0 296 64" style="enable-background:new 0 0 296 64;" xml:space="preserve">
<style type="text/css">
	.st0{fill:#333333;}
	.st1{fill:url(#SVGID_1_);}
</style>
<path class="st0" d="M252.5,21.9c-4.7,0-9.2,1.6-12.2,4.4l1.8,3.3c2.5-2.4,6.1-3.8,10-3.8c5.6,0,8.5,3,8.5,8.6v2h-9.5
	c-8.6,0-11.6,4.2-11.6,9.2c0,5.6,4.2,9.5,11,9.5c5,0,8.5-2,10.3-5.4v5.1h3.9V34.6C264.6,26.1,260.2,21.9,252.5,21.9z M260.6,45
	c-1.6,4.3-5,6.6-9.5,6.6c-4.8,0-7.6-2.4-7.6-6.1c0-3.3,1.9-5.8,7.7-5.8h9.4V45z M275.6,54.8h4.1v-46h-4.1V54.8z M78.4,36.1h19.3
	v-6.6H78.4V18.1h21.7v-6.8H70.9v43.4h29.9V48H78.4V36.1z M130.9,25.8c-0.9-1.1-1.8-1.9-3-2.6c-2-1.2-4.3-1.8-6.8-1.8
	c-2.9,0-5.6,0.7-7.9,2.1c-2.3,1.4-4.2,3.4-5.5,5.9c-1.3,2.5-2,5.5-2,8.9c0,3.4,0.7,6.4,2,8.9c1.3,2.5,3.2,4.5,5.5,5.9
	c2.3,1.4,5,2.1,7.9,2.1c2.6,0,4.9-0.6,7-1.9c1.2-0.7,2.2-1.7,3.1-2.9v4.3h6.8v-46h-7.1V25.8z M129.8,43.7c-0.8,1.6-1.9,2.8-3.3,3.6
	c-1.4,0.8-2.9,1.2-4.6,1.2c-1.7,0-3.2-0.4-4.6-1.2c-1.4-0.8-2.4-2-3.3-3.6c-0.8-1.6-1.2-3.4-1.2-5.5c0-2.1,0.4-4,1.2-5.5
	c0.8-1.5,1.9-2.7,3.3-3.6c1.3-0.8,2.9-1.2,4.6-1.2c1.7,0,3.2,0.4,4.6,1.2c1.3,0.8,2.4,2,3.3,3.6c0.8,1.6,1.2,3.4,1.2,5.5
	C131,40.3,130.6,42.2,129.8,43.7z M291,8.8v46h4v-46H291z M209.2,43.6l-17.3-32.2h-3.5v43.4h4V20.3l15.7,29h2l15.7-29.2v34.7h4V11.4
	h-3.5L209.2,43.6z M169.7,38.4c0,2.2-0.4,4-1.1,5.5c-0.7,1.5-1.7,2.6-2.9,3.3c-1.2,0.7-2.7,1.1-4.4,1.1c-2.3,0-4-0.7-5.3-2.2
	c-1.2-1.5-1.9-3.7-1.9-6.7V21.7h-7.1v18.9c0,3.3,0.6,6,1.7,8.2c1.1,2.2,2.6,3.8,4.6,4.8c2,1.1,4.3,1.6,6.8,1.6
	c2.4,0,4.5-0.6,6.5-1.7c1.3-0.8,2.4-1.8,3.3-3v4.3h6.8V21.7h-7.1V38.4z"/>
<linearGradient id="SVGID_1_" gradientUnits="userSpaceOnUse" x1="25.25" y1="65" x2="25.25" y2="2.975" gradientTransform="matrix(1 0 0 -1 0 66)">
	<stop  offset="0.1351" style="stop-color:#0091DC"/>
	<stop  offset="1" style="stop-color:#0071DC"/>
</linearGradient>
<path class="st1" d="M42.1,21.4l-16.9,7.4l-5.3-2.3l-6.3,3.1l11.6,5.1l16.9-7.4v18c0,0.3-0.2,0.6-0.4,0.8L25.1,56.9
	C24.9,57,24.7,57,24.6,57s-0.3,0-0.5-0.2L7.5,46.2c-0.3-0.2-0.4-0.5-0.4-0.8V21.5c0-0.2,0.1-0.4,0.2-0.5s0.2-0.2,0.3-0.3l6.4-4.1
	l11.3,4.7l24.2-10.2L25.2,1L1,11.2l6.2,2.6l-3,1.9c-1.1,0.7-2,1.7-2.5,2.9c-0.4,0.9-0.6,1.9-0.6,2.9v23.9c0,2.3,1.2,4.5,3.2,5.8
	l16.6,10.7c2.3,1.5,5.2,1.5,7.5,0L45,51.2c2-1.3,3.2-3.5,3.2-5.8V21.5c0-0.9-0.2-1.7-0.5-2.5L42.1,21.4z"/>
</svg>
