<svg xmlns="http://www.w3.org/2000/svg" enable-background="new 0 0 850 850" viewBox="0 0 850 850"><path fill="#fff" d="M291.39,209.94v102.99c0,1.75-1.42,3.17-3.17,3.17H157.7c-1.75,0-3.17-1.42-3.17-3.17V209.94
			c0-1.75,1.42-3.17,3.17-3.17h130.52C289.97,206.77,291.39,208.19,291.39,209.94z"/><path fill="#5c6f77" d="M287.94,210.22v102.43H157.99V210.22H287.94 M291.39,206.77H154.53V316.1h136.86V206.77z"/><path fill="#dfdfdf" d="M274.06,224.86v73.15c0,1.61-1.31,2.92-2.92,2.92h-96.36c-1.61,0-2.92-1.31-2.92-2.92v-73.15
			c0-1.61,1.31-2.92,2.92-2.92h96.36C272.75,221.94,274.06,223.25,274.06,224.86z"/><path fill="#0a0a0c" d="M452.83,634.94c0,0,26.94,7,34.07,8.16c7.12,1.17,11.53-6.35,11.53-6.35s2.72-23.06-2.72-26.43
					c-5.44-3.37-10.23,0.13-18.52-1.04c-8.29-1.17-19.3-1.68-19.3-1.68l-12.18-1.55l-4.27,3.89L452.83,634.94z"/><path fill="#0a0a0c" d="M342.34,601.13c0,0-12.95,0-13.34,6.61c-0.39,6.61-1.08,20.86,7.75,25c8.83,4.15,20.49-3.37,31.24-5.44
					c10.75-2.07,23.97-7.12,23.97-7.12s2.98-5.31,2.72-6.22c-0.26-0.91-12.05-8.42-12.05-8.42L342.34,601.13z"/><path fill="#2f3e46" d="M323.43,548.39c0,0-21.68,11.07-16.41,25.32s27.81,25.61,47.89,35.97c20.08,10.36,97.93,25.26,97.93,25.26
					s-4.02-20.6,5.05-27.33c0,0-4.49-3.32,15.54-8.51s40.59-23.49,36.27-39.04c-4.32-15.54-12.87-17.27-22.93-17.62
					c-10.06-0.35-21.81,0-21.81,0l-22.8,3.3l-65.98,2.91l-32.64-1.9l-13.64-4.47L323.43,548.39z"/><path fill="#2f3e46" d="M359.31,567.15c0,0,24.22,11.57,34.85,16.11s12.95,3.24,20.99,0c8.03-3.24,33.16-18.14,33.16-18.14
					l-20.08-7h-50.26L359.31,567.15z"/><path fill="#fe715e" d="M384.83,440.2c0,0-1.04,3.28-11.05,7.25c-10.02,3.97-29.19,9.15-32.82,19
					c-3.63,9.85-20.04,75.31-17.79,80.83c0,0-0.17,1.12,0.78,1.47c0.95,0.35,8.74-0.32,11.49,0.87s5.79,1.98,5.79,1.98h6.65
					l64.25-3.8l65.81-7.8l8.85,2.45c0,0,6.95,0.69,7.21-3.11c0.26-3.8-23.49-76.86-27.29-81.87s-43.06-15.67-46.14-18.89
					c-3.08-3.22-3.95-3.91-3.95-3.91L384.83,440.2z"/><path fill="#fcc0a9" d="M466.82,532.74c0,0,0.78-2.59,5.31-2.33c4.53,0.26,13.86,4.02,14.64,12.05c0,0-18.01,2.72-21.24,6.09
					c-3.24,3.37-7-2.2-7-2.2L466.82,532.74z"/><path fill="#fcc0a9" d="M346.31,535.46c0,0-10.06,9.46-9.54,13.21c0.52,3.76,12.44,7.38,12.44,7.38s6.74-11.66,6.74-12.05
					S346.31,535.46,346.31,535.46z"/><path fill="#fcc0a9" d="M379.09,408.48c0,0-2.01-1.62-2.82,0s-0.38,4.34-0.2,6.63c0.17,2.29,2.13,5.01,2.23,7.86
					s0.36,3.76,2.91,4.4c0,0,0.35,6.56,1.34,9.24c0.99,2.68,3.04,5.43,3.04,5.43l1.28,3.99l-1.09-0.2c0,0,1.22,4.86,2.65,7.93
					c1.42,3.07,3.67,8.12,7.34,12.87c3.67,4.75,6.93,6.48,6.93,6.48s4.08-5.74,7.02-8.42c2.94-2.68,7.3-10.92,8.2-13.43
					c0.91-2.5,1.35-5.3,1.35-5.3v-2.78l0.58-2.98c0,0,2.26-4.88,2.73-7.08c0.47-2.2,0.37-3.17,0.37-3.17s1.25-0.46,2.49-2.36
					c1.24-1.9,2.45-8.06,3.36-10.42c0.91-2.36,0.96-5.5,0.22-6.51c-0.74-1.01-1.65-1.51-1.65-1.51l-1.93-11.62l-20.52-16.62
					l-10.1,8.42l-8.42,3.24l-4.4,6.61L379.09,408.48z"/><path fill="#0a0a0c" d="M381.6,425.12c0,0-0.92-13.18,0.58-16.01s2.25-9.96,2.53-11.86c0.29-1.9,6.16-2.19,14.28-0.29
					c8.12,1.9,15.37-1.6,19.81-1.29c4.43,0.31,5.64,9.87,5.41,13.9c-0.23,4.03-1.27,20.38-1.27,20.38s1.61-15.54,3.4-17.73
					c1.78-2.19,2.36-1.67,2.94-8.81c0.58-7.14-1.09-26.25-16.55-30.49c-15.46-4.23-33.16,9.07-34.98,18.39
					c-1.81,9.33,1.73,17.62,2.13,20.21C380.28,414.12,381.6,425.12,381.6,425.12z"/><path fill="#fc9a73" d="M385.57,442.04c0,0,5.41,9.85,8.75,12.15c3.34,2.3,7.02,2.36,10.77,1.32c3.74-1.04,9.56-7.6,11.92-10.65
					c2.36-3.05,2.82-4.66,2.82-4.66s-0.06,4.09-0.58,5.76c-0.52,1.67-9.44,11.98-14.05,12.84c-4.61,0.86-10.13-0.4-14.62-5.35
					C386.09,448.49,385.29,446.25,385.57,442.04z"/><path fill="#0a0a0c" d="M454.08,567.15h-93.94c-7.64,0-13.83-6.19-13.83-13.83v-42.47c0-7.64,6.19-13.83,13.83-13.83h93.94
					c7.64,0,13.83,6.19,13.83,13.83v42.47C467.9,560.96,461.71,567.15,454.08,567.15z"/><ellipse cx="405.17" cy="532.09" fill="#f47458" rx="7.05" ry="9.71"/><polygon fill="#bf5547" points="458.53 497.08 450.14 497.08 447.23 471.58"/><polygon fill="#bf5547" points="356.59 497.08 364.98 497.08 367.89 471.58"/><rect width="245.71" height="157.93" x="449.68" y="218.12" fill="#dfdfdf"/><path fill="#a5d3cd" d="M695.47,376.14H449.6v-158.1h245.87V376.14z M449.76,375.97H695.3V218.2H449.76V375.97z"/><rect width="245.71" height="19.25" x="449.68" y="218.12" fill="#5c6f77"/><circle cx="487.98" cy="227.74" r="3.79" fill="#fff"/><circle cx="472.91" cy="227.74" r="3.79" fill="#fff"/><circle cx="457.83" cy="227.74" r="3.79" fill="#fff"/><rect width="4.11" height="82.68" x="520.07" y="252.36" fill="#fff"/><rect width="5.52" height="5.52" x="506.33" y="326.52" fill="#fff"/><rect width="5.52" height="5.52" x="506.33" y="310.61" fill="#fff"/><rect width="5.52" height="5.52" x="506.33" y="294.7" fill="#fff"/><rect width="5.52" height="5.52" x="506.33" y="278.79" fill="#fff"/><rect width="5.52" height="5.52" x="506.33" y="262.87" fill="#fff"/><rect width="39.11" height="2.47" x="533.63" y="331.4" fill="#fff"/><rect width="53.73" height="2.47" x="579.85" y="331.4" fill="#fff"/><rect width="40.78" height="2.47" x="640.45" y="331.4" fill="#fff"/><rect width="54.14" height="2.47" x="533.63" y="320.24" fill="#fff"/><rect width="36.29" height="2.47" x="597.29" y="320.24" fill="#fff"/><rect width="28.54" height="2.47" x="640.45" y="320.24" fill="#fff"/><rect width="39.11" height="2.47" x="533.63" y="309.08" fill="#fff"/><rect width="41.63" height="2.47" x="579.85" y="309.08" fill="#fff"/><rect width="41.69" height="2.47" x="628.17" y="309.08" fill="#fff"/><rect width="48.51" height="2.47" x="556.3" y="297.93" fill="#fff"/><rect width="16.56" height="2.47" x="534.22" y="297.93" fill="#fff"/><rect width="44.74" height="2.47" x="611.14" y="297.93" fill="#fff"/><rect width="26.78" height="2.47" x="662.93" y="297.93" fill="#fff"/><rect width="28.89" height="2.47" x="533.63" y="286.77" fill="#fff"/><rect width="49.79" height="2.47" x="570.51" y="286.77" fill="#fff"/><rect width="48.47" height="2.47" x="632.75" y="286.77" fill="#fff"/><rect width="56.08" height="2.47" x="533.63" y="275.61" fill="#fff"/><rect width="41.05" height="2.47" x="597.2" y="275.61" fill="#fff"/><g><rect width="39.11" height="2.47" x="533.63" y="264.46" fill="#fff"/></g><g><rect width="37.7" height="2.47" x="607.27" y="264.46" fill="#fff"/></g><g><rect width="14.86" height="2.47" x="584.84" y="264.46" fill="#fff"/></g><g><rect width="30.04" height="2.47" x="651.19" y="264.46" fill="#fff"/></g><g><rect width="65.06" height="2.47" x="533.63" y="253.3" fill="#fff"/></g><g><rect width="21.93" height="2.47" x="604.19" y="253.3" fill="#fff"/></g><g><rect width="41.23" height="118.89" x="456.08" y="247.91" fill="#5c6f77"/></g><g><rect width="33.04" height="4.27" x="460.17" y="257.92" fill="#fff"/></g><g><rect width="33.04" height="4.27" x="460.17" y="271.34" fill="#fff"/></g><g><rect width="33.04" height="4.27" x="460.17" y="284.76" fill="#fff"/></g><g><rect width="22.04" height="4.27" x="460.17" y="298.18" fill="#fff"/></g><g><rect width="33.04" height="4.27" x="460.17" y="311.6" fill="#fff"/></g><g><rect width="33.04" height="4.27" x="460.17" y="338.43" fill="#fff"/></g><g><rect width="33.04" height="4.27" x="460.17" y="351.85" fill="#fff"/></g></svg>